<svg xmlns="http://www.w3.org/2000/svg" width="256" height="256" viewBox="0 0 256 256" role="img" aria-labelledby="title desc">
  <title id="title">AI File Sorter simplified app icon draft</title>
  <desc id="desc">A simplified three-folder icon with consistent geometry, charcoal outlines, a muted coral accent, and no arrows or decorative paper text.</desc>
  <defs>
    <linearGradient id="paperFill" x1="0%" y1="0%" x2="100%" y2="100%">
      <stop offset="0%" stop-color="#ffffff" />
      <stop offset="100%" stop-color="#eef3f8" />
    </linearGradient>
    <linearGradient id="folderBackLeft" x1="0%" y1="0%" x2="100%" y2="100%">
      <stop offset="0%" stop-color="#eb7c74" />
      <stop offset="100%" stop-color="#d75864" />
    </linearGradient>
    <linearGradient id="folderBackRight" x1="0%" y1="0%" x2="100%" y2="100%">
      <stop offset="0%" stop-color="#f2b53b" />
      <stop offset="100%" stop-color="#db9620" />
    </linearGradient>
    <linearGradient id="folderFront" x1="0%" y1="0%" x2="100%" y2="100%">
      <stop offset="0%" stop-color="#ffb72c" />
      <stop offset="100%" stop-color="#ee9f17" />
    </linearGradient>
    <style>
      .outline {
        stroke: #243240;
        stroke-width: 5.5;
        stroke-linecap: round;
        stroke-linejoin: round;
      }
    </style>
  </defs>

  <ellipse cx="120" cy="226" rx="76" ry="6" fill="#152130" opacity="0.1" />

  <g transform="translate(12 38) scale(0.69)">
    <path class="outline" fill="url(#paperFill)" d="M24 12h49c9 0 16 3 23 10l18 18c7 7 10 14 10 23v44c0 10-8 18-18 18H24c-10 0-18-8-18-18V30c0-10 8-18 18-18Z" />
    <path class="outline" fill="none" d="M73 12v25c0 8 6 14 14 14h27" />
    <path class="outline" fill="url(#folderBackLeft)" d="M18 56c0-12 10-22 22-22h27c8 0 14-2 19-8l10-11c6-7 12-10 22-10h30c9 0 15 3 21 9l12 11c6 5 11 8 19 8h11c12 0 21 10 21 22l-9 86c-2 12-12 21-24 21H33c-13 0-23-9-24-21L0 69c-1-7 5-13 12-13h6Z" />
  </g>

  <g transform="translate(74 22) scale(0.73)">
    <path class="outline" fill="url(#paperFill)" d="M24 12h49c9 0 16 3 23 10l18 18c7 7 10 14 10 23v44c0 10-8 18-18 18H24c-10 0-18-8-18-18V30c0-10 8-18 18-18Z" />
    <path class="outline" fill="none" d="M73 12v25c0 8 6 14 14 14h27" />
    <path class="outline" fill="url(#folderBackRight)" d="M18 56c0-12 10-22 22-22h27c8 0 14-2 19-8l10-11c6-7 12-10 22-10h30c9 0 15 3 21 9l12 11c6 5 11 8 19 8h11c12 0 21 10 21 22l-9 86c-2 12-12 21-24 21H33c-13 0-23-9-24-21L0 69c-1-7 5-13 12-13h6Z" />
  </g>

  <g transform="translate(40 92) scale(0.78)">
    <path class="outline" fill="url(#paperFill)" d="M24 12h49c9 0 16 3 23 10l18 18c7 7 10 14 10 23v44c0 10-8 18-18 18H24c-10 0-18-8-18-18V30c0-10 8-18 18-18Z" />
    <path class="outline" fill="none" d="M73 12v25c0 8 6 14 14 14h27" />
    <path class="outline" fill="url(#folderFront)" d="M18 56c0-12 10-22 22-22h27c8 0 14-2 19-8l10-11c6-7 12-10 22-10h30c9 0 15 3 21 9l12 11c6 5 11 8 19 8h11c12 0 21 10 21 22l-9 86c-2 12-12 21-24 21H33c-13 0-23-9-24-21L0 69c-1-7 5-13 12-13h6Z" />
  </g>
</svg>
